<svg width="69" height="55" viewBox="0 0 69 55" fill="none" xmlns="http://www.w3.org/2000/svg">
<g id="Icon">
<path id="Vector" d="M65.9542 16.4995H29.8014V51.5119H65.9542V16.4995Z" fill="#0540F2"/>
<path id="Vector_2" d="M38.3079 1.64569H2.15509V36.6582H38.3079V1.64569Z" fill="#0540F2"/>
<path id="Vector_3" d="M29.8014 51.5119L38.3079 36.6581H29.8014V51.5119Z" fill="#0540F2"/>
<path id="Vector_4" opacity="0.1" d="M27.6747 17.0299C28.2388 17.0299 28.7797 16.8064 29.1785 16.4084C29.5773 16.0105 29.8014 15.4707 29.8014 14.908C29.8014 14.3452 29.5773 13.8054 29.1785 13.4075C28.7797 13.0096 28.2388 12.786 27.6747 12.786H20.2315V10.664C20.2315 10.1012 20.0075 9.56151 19.6086 9.16356C19.2098 8.76562 18.6689 8.54205 18.1049 8.54205C17.5409 8.54205 16.9999 8.76562 16.6011 9.16356C16.2023 9.56151 15.9782 10.1012 15.9782 10.664V12.786H8.53502C7.971 12.786 7.43008 13.0096 7.03126 13.4075C6.63244 13.8054 6.40839 14.3452 6.40839 14.908C6.40839 15.4707 6.63244 16.0105 7.03126 16.4084C7.43008 16.8064 7.971 17.0299 8.53502 17.0299H21.7159C20.961 19.2165 19.7319 21.21 18.1162 22.8682C17.0543 21.7984 16.1624 20.5729 15.4715 19.2343C15.2114 18.735 14.7632 18.3592 14.2254 18.1897C13.6876 18.0201 13.1044 18.0707 12.604 18.3303C12.1036 18.5898 11.727 19.0371 11.5571 19.5736C11.3872 20.1102 11.4379 20.6922 11.698 21.1915C12.4711 22.6905 13.4342 24.084 14.5636 25.3378C12.6694 26.1869 10.6114 26.6105 8.53502 26.5788C7.971 26.5788 7.43008 26.8023 7.03126 27.2003C6.63244 27.5982 6.40839 28.138 6.40839 28.7008C6.40839 29.2635 6.63244 29.8033 7.03126 30.2012C7.43008 30.5992 7.971 30.8227 8.53502 30.8227C11.8917 30.8862 15.198 30.0012 18.0721 28.2699C20.9647 30.0145 24.2957 30.9 27.6747 30.8227C28.2388 30.8227 28.7797 30.5992 29.1785 30.2012C29.5773 29.8033 29.8014 29.2635 29.8014 28.7008C29.8014 28.138 29.5773 27.5982 29.1785 27.2003C28.7797 26.8023 28.2388 26.5788 27.6747 26.5788C25.5889 26.6081 23.522 26.1811 21.6193 25.3278C23.7783 22.9609 25.3445 20.1173 26.1897 17.0299H27.6747Z" fill="#0540F2"/>
<path id="Vector_5" opacity="0.1" d="M65.8797 16.4995H40.509C40.4575 16.6715 40.4324 16.8504 40.4345 17.03C40.4362 17.5922 40.6608 18.131 41.0592 18.5286C41.4577 18.9262 41.9977 19.1503 42.5612 19.1519H61.7009V49.9205H31.3432L38.0314 38.239C38.2022 37.9144 38.2968 37.5552 38.3079 37.1887V2.17618C38.31 1.99662 38.2849 1.81777 38.2335 1.64569H2.15509V4.29815H34.0546V35.0667H2.15509V36.6582H29.8014V39.3106H32.5128L29.8014 44.0532V51.512H65.9542V17.03C65.9563 16.8504 65.9312 16.6715 65.8797 16.4995Z" fill="#0540F2"/>
<path id="Vector_6" opacity="0.1" d="M50.0044 28.7008C48.031 28.703 46.1391 29.4861 44.7437 30.8785C43.3483 32.2708 42.5634 34.1586 42.5612 36.1277V43.5546C42.5612 44.1174 42.7853 44.6571 43.1841 45.055C43.5829 45.453 44.1238 45.6766 44.6879 45.6766C45.2519 45.6766 45.7928 45.453 46.1916 45.055C46.5904 44.6571 46.8145 44.1174 46.8145 43.5546V41.4326H53.1944V43.5546C53.1944 44.1174 53.4185 44.6571 53.8173 45.055C54.2161 45.453 54.757 45.6766 55.321 45.6766C55.8851 45.6766 56.426 45.453 56.8248 45.055C57.2236 44.6571 57.4477 44.1174 57.4477 43.5546V36.1277C57.4455 34.1586 56.6606 32.2708 55.2652 30.8785C53.8698 29.4861 51.9778 28.703 50.0044 28.7008ZM53.1944 37.1887H46.8145V36.1277C46.8145 35.2835 47.1506 34.4739 47.7488 33.877C48.347 33.2801 49.1584 32.9447 50.0044 32.9447C50.8505 32.9447 51.6618 33.2801 52.2601 33.877C52.8583 34.4739 53.1944 35.2835 53.1944 36.1277V37.1887Z" fill="#0540F2"/>
<path id="Vector_7" opacity="0.1" d="M50.0044 26.5788C51.179 26.5788 52.1311 25.6287 52.1311 24.4568C52.1311 23.2849 51.179 22.3348 50.0044 22.3348C48.8299 22.3348 47.8778 23.2849 47.8778 24.4568C47.8778 25.6287 48.8299 26.5788 50.0044 26.5788Z" fill="#0540F2"/>
<path id="Vector_8" d="M29.8014 30.8227C30.3654 30.8227 30.9063 30.5992 31.3052 30.2012C31.704 29.8033 31.928 29.2635 31.928 28.7008C31.928 28.138 31.704 27.5982 31.3052 27.2003C30.9063 26.8023 30.3654 26.5788 29.8014 26.5788C27.7156 26.6081 25.6487 26.1811 23.746 25.3278C25.905 22.9609 27.4712 20.1173 28.3164 17.0299H29.8014C30.3654 17.0299 30.9063 16.8064 31.3052 16.4084C31.704 16.0105 31.928 15.4707 31.928 14.908C31.928 14.3452 31.704 13.8054 31.3052 13.4075C30.9063 13.0096 30.3654 12.786 29.8014 12.786H22.3582V10.664C22.3582 10.1012 22.1341 9.56151 21.7353 9.16356C21.3365 8.76562 20.7956 8.54205 20.2315 8.54205C19.6675 8.54205 19.1266 8.76562 18.7278 9.16356C18.329 9.56151 18.1049 10.1012 18.1049 10.664V12.786H10.6617C10.0977 12.786 9.55673 13.0096 9.15791 13.4075C8.75909 13.8054 8.53503 14.3452 8.53503 14.908C8.53503 15.4707 8.75909 16.0105 9.15791 16.4084C9.55673 16.8064 10.0977 17.0299 10.6617 17.0299H23.8426C23.0876 19.2165 21.8585 21.21 20.2429 22.8682C19.1809 21.7984 18.2891 20.573 17.5982 19.2343C17.4697 18.9865 17.2935 18.7665 17.0797 18.5867C16.8659 18.407 16.6186 18.2711 16.3521 18.1868C16.0856 18.1025 15.805 18.0714 15.5265 18.0955C15.2479 18.1195 14.9768 18.1981 14.7288 18.3267C14.4807 18.4554 14.2605 18.6316 14.0807 18.8453C13.901 19.059 13.7653 19.306 13.6813 19.5721C13.5973 19.8381 13.5667 20.1181 13.5913 20.396C13.6159 20.6739 13.6952 20.9443 13.8246 21.1915C14.5977 22.6905 15.5608 24.0841 16.6903 25.3379C14.796 26.1869 12.738 26.6105 10.6617 26.5788C10.0977 26.5788 9.55673 26.8023 9.15791 27.2003C8.75909 27.5982 8.53503 28.138 8.53503 28.7008C8.53503 29.2635 8.75909 29.8033 9.15791 30.2012C9.55673 30.5992 10.0977 30.8227 10.6617 30.8227C14.0184 30.8862 17.3246 30.0012 20.1988 28.2699C23.0913 30.0145 26.4224 30.9 29.8014 30.8227Z" fill="white"/>
<path id="Vector_9" d="M65.9542 14.908H44.6879C44.1238 14.908 43.5829 15.1315 43.1841 15.5295C42.7853 15.9274 42.5612 16.4672 42.5612 17.0299C42.5612 17.5927 42.7853 18.1325 43.1841 18.5304C43.5829 18.9284 44.1238 19.1519 44.6879 19.1519H63.8276V49.9205H33.4658L40.1542 38.2413C40.3256 37.9159 40.4214 37.5561 40.4346 37.1886V2.17617C40.4346 1.6134 40.2105 1.07368 39.8117 0.675741C39.4129 0.277801 38.872 0.0542274 38.3079 0.0541992H2.15514C1.59113 0.0542274 1.05023 0.277801 0.651412 0.675741C0.252596 1.07368 0.0285316 1.6134 0.0285034 2.17617L0.0285034 37.1886C0.0285316 37.7514 0.252596 38.2911 0.651412 38.6891C1.05023 39.087 1.59113 39.3106 2.15514 39.3106H27.6748V52.0424C27.6836 52.6028 27.9108 53.1377 28.3081 53.5338C28.7054 53.9299 29.2417 54.1561 29.8033 54.1644H65.9542C66.5182 54.1644 67.0591 53.9408 67.4579 53.5429C67.8568 53.1449 68.0808 52.6052 68.0808 52.0424V17.0299C68.0808 16.4672 67.8568 15.9275 67.4579 15.5295C67.0591 15.1316 66.5182 14.908 65.9542 14.908ZM4.28177 4.29814H36.1813V35.0667H4.28177V4.29814ZM34.6436 39.3106L31.928 44.0524V39.3106H34.6436Z" fill="white"/>
<path id="Vector_10" d="M44.6879 36.1277V43.5546C44.6879 44.1174 44.9119 44.6571 45.3107 45.055C45.7096 45.453 46.2505 45.6766 46.8145 45.6766C47.3785 45.6766 47.9194 45.453 48.3183 45.055C48.7171 44.6571 48.9411 44.1174 48.9411 43.5546V41.4326H55.321V43.5546C55.321 44.1174 55.5451 44.6571 55.9439 45.055C56.3427 45.453 56.8837 45.6766 57.4477 45.6766C58.0117 45.6766 58.5526 45.453 58.9514 45.055C59.3503 44.6571 59.5743 44.1174 59.5743 43.5546V36.1277C59.5743 34.158 58.7901 32.2689 57.3942 30.8761C55.9984 29.4833 54.1052 28.7008 52.1311 28.7008C50.157 28.7008 48.2638 29.4833 46.8679 30.8761C45.4721 32.2689 44.6879 34.158 44.6879 36.1277ZM52.1311 32.9447C52.9768 32.9457 53.7877 33.2813 54.3857 33.878C54.9837 34.4747 55.3201 35.2838 55.321 36.1277V37.1887H48.9411V36.1277C48.9421 35.2838 49.2784 34.4747 49.8765 33.878C50.4745 33.2813 51.2853 32.9457 52.1311 32.9447Z" fill="white"/>
<path id="Vector_11" d="M52.131 26.5788C53.3055 26.5788 54.2577 25.6287 54.2577 24.4568C54.2577 23.2849 53.3055 22.3348 52.131 22.3348C50.9565 22.3348 50.0044 23.2849 50.0044 24.4568C50.0044 25.6287 50.9565 26.5788 52.131 26.5788Z" fill="white"/>
</g>
</svg>
