<svg width="70" height="70" viewBox="0 0 70 70" fill="none" xmlns="http://www.w3.org/2000/svg">
<g id="Icon">
<path id="&#60;Group&#62;" d="M66.5302 29.4852V38.9278L59.5931 39.6057C58.9074 42.6677 57.6745 45.581 55.9535 48.2055L60.4337 53.6047L53.7533 60.2652L48.3499 55.7885C45.7282 57.524 42.8039 58.7526 39.7288 59.4106L39.0504 66.413H29.5886L28.9103 59.4106C25.8402 58.7366 22.9188 57.5092 20.2891 55.7885L14.8858 60.2652L8.20533 53.6047L12.6855 48.2055C10.9469 45.5904 9.71251 42.6738 9.04592 39.6057L2.02924 38.9278V29.4852L9.04592 28.8073C9.73342 25.745 10.9662 22.8311 12.6855 20.2046L8.20533 14.8054L14.8858 8.14482L20.2891 12.6215C22.9124 10.889 25.8362 9.66064 28.9103 8.99949L29.5886 2H39.0504L39.7288 8.99949C42.7984 9.67481 45.7196 10.9021 48.3499 12.6215L53.7533 8.14482L60.3541 14.8054L55.8739 20.2046C57.6117 22.8208 58.845 25.7385 59.5105 28.8073L66.5302 29.4852ZM50.0576 34.2065C50.0626 31.0884 49.1418 28.0388 47.4117 25.4438C45.6816 22.8488 43.22 20.8249 40.3384 19.6283C37.4567 18.4316 34.2847 18.116 31.2235 18.7214C28.1623 19.3268 25.3497 20.826 23.1415 23.0292C20.9332 25.2324 19.4287 28.0406 18.8183 31.0985C18.2079 34.1564 18.5189 37.3265 19.7122 40.2077C20.9054 43.0889 22.9272 45.5517 25.5216 47.2843C28.116 49.017 31.1665 49.9417 34.2871 49.9414C38.4664 49.9439 42.4756 48.2878 45.4331 45.337C48.3905 42.3863 50.054 38.3826 50.0576 34.2065Z" fill="white"/>
</g>
</svg>
